<?xml version="1.0" encoding="UTF-8"?>
<svg width="172px" height="40px" viewBox="0 0 172 40" version="1.1" xmlns="http://www.w3.org/2000/svg" xmlns:xlink="http://www.w3.org/1999/xlink">
    <!-- Generator: sketchtool 52.5 (67469) - http://www.bohemiancoding.com/sketch -->
    <title>A186E133-4470-4584-8B5C-123B6C0326FC</title>
    <desc>Created with sketchtool.</desc>
    <g id="SIGN-UP/LOG-IN" stroke="none" stroke-width="1" fill="none" fill-rule="evenodd">
        <g id="RESET-PASSWORD-EMAIL" transform="translate(-298.000000, -44.000000)" fill="#3577d4">
            <g id="SU-LOGO" transform="translate(298.000000, 44.000000)">
                <path d="M51.2204339,25.2965818 C51.4398068,25.6420364 51.7174847,25.9387636 52.0520102,26.1896727 C52.3879932,26.4391273 52.7276203,26.6449455 53.0810949,26.8078545 C53.4294678,26.9685818 53.7639932,27.0849455 54.0832136,27.1569455 C54.4017051,27.2318545 54.6567898,27.2682182 54.8433661,27.2682182 C55.1348915,27.2682182 55.4839932,27.2362182 55.8811966,27.1736727 C56.2762136,27.1133091 56.6493661,27.0013091 57.0028407,26.8376727 C57.3497559,26.6762182 57.6500271,26.4565818 57.8934508,26.1802182 C58.1397898,25.9031273 58.2636881,25.5511273 58.2636881,25.1242182 C58.2636881,24.7067636 58.1667559,24.3671273 57.9736203,24.1067636 C57.7812136,23.8456727 57.5195695,23.6289455 57.1886881,23.4565818 C56.8599932,23.2849455 56.4831966,23.1402182 56.0604847,23.0260364 C55.6377729,22.9118545 55.1873661,22.7860364 54.7165525,22.6500364 C53.6189593,22.3591273 52.6838915,22.0071273 51.912078,21.5940364 C51.138078,21.1824 50.5032814,20.7104 50.0047729,20.1787636 C49.5062644,19.6456727 49.1433153,19.0624 48.9130102,18.4253091 C48.6848915,17.7904 48.5682814,17.0936727 48.5682814,16.3424 C48.5682814,15.4965818 48.7380949,14.7256727 49.0711627,14.0253091 C49.4042305,13.3264 49.8779593,12.7256727 50.4828746,12.2267636 C51.0892475,11.7264 51.818061,11.3373091 52.6707729,11.0609455 C53.5234847,10.7845818 54.4687559,10.6449455 55.5022136,10.6449455 C56.2339424,10.6449455 56.8898746,10.7111273 57.4619932,10.8405818 C58.0384847,10.9714909 58.5712475,11.1678545 59.0624678,11.4289455 C59.5536881,11.6885818 60.0186712,12.0165818 60.4515864,12.4136727 C60.8845017,12.8107636 61.3283492,13.2747636 61.7765695,13.8064 C61.934722,13.9947636 62.0119763,14.1787636 62.0119763,14.3554909 C62.0119763,14.5431273 61.9077559,14.7205818 61.6971288,14.8864 C61.5404339,15.0114909 61.3553153,15.1685818 61.1432305,15.3576727 C60.9267729,15.5445818 60.7161458,15.7278545 60.5055186,15.9045818 C60.2978068,16.0827636 60.1002983,16.2325818 59.9108068,16.3598545 C59.7227729,16.4842182 59.566078,16.5467636 59.440722,16.5467636 C59.2075017,16.5467636 58.9852136,16.4114909 58.7665695,16.1394909 C58.5355356,15.8682182 58.3066881,15.6311273 58.0741966,15.4274909 C57.8453492,15.2231273 57.6048407,15.0565818 57.3541288,14.9249455 C57.1034169,14.7962182 56.8315695,14.6965818 56.5371288,14.6289455 C56.2456034,14.5613091 55.9263831,14.5271273 55.578739,14.5271273 C55.2974169,14.5271273 55.0022475,14.5700364 54.6968746,14.6529455 C54.3878576,14.7358545 54.1043492,14.8602182 53.8478068,15.0274909 C53.589078,15.1940364 53.3769932,15.3954909 53.2049932,15.6311273 C53.033722,15.8645818 52.9455356,16.1300364 52.9455356,16.4224 C52.9455356,16.7569455 53.0526712,17.0391273 53.2676712,17.2747636 C53.4812136,17.5089455 53.753061,17.7118545 54.0817559,17.8856727 C54.4104508,18.0573091 54.7690271,18.2013091 55.1531119,18.3154909 C55.5422983,18.4304 55.8994169,18.5351273 56.2354,18.6274909 C57.1959763,18.8994909 58.0771119,19.2129455 58.881722,19.5671273 C59.6856034,19.9227636 60.3787051,20.3525818 60.9551966,20.8587636 C61.5375186,21.3634909 61.9871966,21.9598545 62.3122475,22.6442182 C62.6351119,23.3278545 62.7976373,24.1271273 62.7976373,25.0456727 C62.7976373,26.0151273 62.6037729,26.8856727 62.2182305,27.6514909 C61.8326881,28.4187636 61.2999254,29.0689455 60.6170271,29.6013091 C59.9348576,30.1314909 59.1251458,30.5402182 58.190078,30.8216727 C57.2586542,31.1024 56.2397729,31.2442182 55.1421797,31.2442182 C54.4833322,31.2442182 53.8142814,31.1729455 53.1350271,31.0318545 C52.4543153,30.8922182 51.8042136,30.6725818 51.1818068,30.3765818 C50.5586712,30.0776727 49.9836373,29.6973091 49.4567051,29.2333091 C48.9275864,28.7685818 48.4859254,28.2173091 48.1302644,27.5824 C47.9750271,27.3213091 47.8963153,27.0849455 47.8963153,26.8784 C47.8963153,26.7409455 47.9291119,26.6238545 47.9976203,26.5242182 C48.0646712,26.4260364 48.1572305,26.3285818 48.2738407,26.2362182 L50.0288237,24.8885818 C50.1855186,24.7947636 50.324722,24.7474909 50.4515356,24.7474909 C50.5980271,24.7474909 50.7277559,24.7969455 50.8443661,24.8973091 C50.9617051,24.9969455 51.0841458,25.1293091 51.2204339,25.2965818" id="Fill-1"></path>
                <path d="M61.6031847,12.2895273 C61.5835068,12.2044364 61.5660153,12.1309818 61.5492525,12.0713455 C61.5332186,12.0066182 61.5208288,11.9404364 61.5106254,11.8677091 C61.4989644,11.7920727 61.4953203,11.7295273 61.4953203,11.6778909 C61.4953203,11.4808 61.5660153,11.3208 61.7088627,11.2022545 C61.8480661,11.0808 62.0601508,11.0211636 62.3436593,11.0211636 L65.1663542,11.0211636 C65.6561169,11.0211636 65.9877271,11.2604364 66.1538966,11.7404364 C66.3404729,12.2829818 66.5678627,12.9251636 66.8346085,13.6655273 C67.1006254,14.4073455 67.3855915,15.1898909 67.6829475,16.0146182 C67.9803034,16.8400727 68.2864051,17.6713455 68.6012525,18.5106182 C68.9139136,19.3513455 69.2105407,20.1455273 69.4860322,20.8895273 C69.7651678,21.6378909 70.0129644,22.3048 70.2381678,22.8931636 C70.4641,23.4837091 70.6375576,23.9295273 70.7658288,24.2320727 C71.2344559,22.9069818 71.8364559,21.2117091 72.5696424,19.1455273 C73.3013712,17.0778909 74.1948966,14.6051636 75.2516763,11.7266182 C75.3442356,11.4742545 75.4732356,11.2960727 75.635761,11.1855273 C75.7968288,11.0757091 76.0045407,11.0211636 76.2552525,11.0211636 L78.9839305,11.0211636 C79.3082525,11.0211636 79.5319983,11.0735273 79.6529814,11.1775273 C79.7710492,11.2829818 79.8293542,11.4182545 79.8293542,11.5848 C79.8293542,11.6684364 79.8191508,11.7724364 79.7921847,11.8989818 C79.7652186,12.0233455 79.7426254,12.1171636 79.720761,12.1797091 L78.0896763,16.1397091 C78.2988458,16.6626182 78.5422695,17.2437091 78.8184898,17.8851636 C79.0961678,18.5258909 79.3876932,19.1993455 79.6981678,19.9040727 C80.0071847,20.6080727 80.3147441,21.3258909 80.6252186,22.0560727 C80.9313203,22.7862545 81.2228458,23.4968 81.4946932,24.1848 C81.6841847,23.6829818 81.9042864,23.1055273 82.1608288,22.4473455 C82.4173712,21.7898909 82.6819305,21.0917091 82.9581508,20.3498909 C83.2387441,19.6109818 83.524439,18.8480727 83.8232525,18.0648 C84.1206085,17.2822545 84.4143203,16.5135273 84.7014729,15.7571636 C84.9893542,15.0008 85.2641169,14.2764364 85.5243034,13.5877091 C85.7881339,12.8997091 86.0213542,12.2786182 86.2319814,11.7266182 C86.3274559,11.4742545 86.4455237,11.2960727 86.5934729,11.1855273 C86.7399644,11.0757091 86.9309136,11.0211636 87.1728797,11.0211636 L89.7762017,11.0211636 C90.0808458,11.0211636 90.310422,11.0655273 90.4671169,11.1542545 C90.6245407,11.2444364 90.7017949,11.3964364 90.7017949,11.6153455 C90.7017949,11.6888 90.6915915,11.7884364 90.6704559,11.9120727 C90.6500492,12.0378909 90.6289136,12.1258909 90.607778,12.1797091 L83.2044898,30.2742545 C83.1629475,30.3469818 83.1184898,30.4197091 83.0703881,30.4931636 C83.0237441,30.5658909 82.9581508,30.6342545 82.8838119,30.6960727 C82.8043712,30.7593455 82.7045237,30.8073455 82.5849983,30.8451636 C82.4654729,30.8815273 82.3189814,30.8997091 82.1520831,30.8997091 L80.8045068,30.8997091 C80.4386424,30.8997091 80.1864729,30.8313455 80.0501847,30.6960727 C79.9146254,30.5608 79.806761,30.4146182 79.720761,30.2582545 C79.1049136,28.7658909 78.4927102,27.2866182 77.8863373,25.8197091 C77.2799644,24.3535273 76.6721339,22.8749818 76.0672186,21.3833455 L72.4595915,30.2742545 C72.375778,30.4197091 72.2737441,30.5608 72.152761,30.6960727 C72.0332356,30.8313455 71.8109475,30.8997091 71.4866254,30.8997091 L70.0443034,30.8997091 C69.6660492,30.8997091 69.4109644,30.8342545 69.2826932,30.7055273 C69.1529644,30.5746182 69.0553034,30.4298909 68.9926254,30.2742545 L61.6031847,12.2895273 Z" id="Fill-3"></path>
                <path d="M93.9471288,20.9457455 C93.9471288,21.7792 94.0936203,22.5704727 94.3873322,23.3152 C94.6803153,24.0613818 95.0869932,24.7181091 95.6095525,25.2817455 C96.1321119,25.8439273 96.7501458,26.2912 97.4556373,26.6184727 C98.1589424,26.9472 98.9307559,27.1130182 99.7674339,27.1130182 C100.615773,27.1130182 101.407264,26.9472 102.144824,26.6184727 C102.882383,26.2912 103.521553,25.8439273 104.065247,25.2817455 C104.608942,24.7181091 105.038942,24.0613818 105.353061,23.3152 C105.664993,22.5704727 105.823146,21.7792 105.823146,20.9457455 C105.823146,20.1224727 105.664993,19.3362909 105.353061,18.5879273 C105.038942,17.8439273 104.608942,17.1893818 104.065247,16.6257455 C103.521553,16.0613818 102.882383,15.6133818 102.144824,15.2788364 C101.407264,14.9442909 100.615773,14.7777455 99.7674339,14.7777455 C98.9307559,14.7777455 98.1589424,14.9442909 97.4556373,15.2788364 C96.7501458,15.6133818 96.1321119,16.0613818 95.6095525,16.6257455 C95.0869932,17.1893818 94.6803153,17.8439273 94.3873322,18.5879273 C94.0936203,19.3362909 93.9471288,20.1224727 93.9471288,20.9457455 Z M110.263078,29.9755636 C110.263078,30.1639273 110.222993,30.3181091 110.14501,30.4395636 C110.064841,30.5581091 109.962807,30.6526545 109.838908,30.7195636 C109.713553,30.7886545 109.569976,30.8344727 109.407451,30.8613818 C109.243468,30.8861091 109.072925,30.8999273 108.899468,30.8999273 L106.936044,30.8999273 C106.600061,30.8999273 106.366841,30.8112 106.238569,30.6337455 C106.106654,30.4577455 106.01118,30.2337455 105.948502,29.9610182 L105.853027,28.6286545 C105.48862,28.9966545 105.081214,29.3377455 104.638824,29.6555636 C104.193519,29.9733818 103.714688,30.2504727 103.202332,30.4846545 C102.689976,30.7195636 102.146281,30.9028364 101.571247,31.0315636 C100.997671,31.1646545 100.405146,31.2293818 99.7987729,31.2293818 C98.8578746,31.2293818 97.9512305,31.1064727 97.0788407,30.8613818 C96.2035356,30.6162909 95.3865356,30.2708364 94.6220102,29.8279273 C93.8604,29.3842909 93.1658407,28.8490182 92.5448915,28.2235636 C91.9202983,27.5973818 91.3889932,26.9028364 90.9451458,26.1413818 C90.4998407,25.3806545 90.1536542,24.5610182 89.9087729,23.6832 C89.6624339,22.8082909 89.5385356,21.8955636 89.5385356,20.9457455 C89.5385356,19.9973818 89.6624339,19.0824727 89.9087729,18.2061091 C90.1536542,17.3290182 90.4998407,16.5093818 90.9451458,15.7486545 C91.3889932,14.9872 91.9202983,14.2948364 92.5448915,13.6759273 C93.1658407,13.0541091 93.8604,12.5224727 94.6220102,12.0788364 C95.3865356,11.6344727 96.2035356,11.2897455 97.0788407,11.0446545 C97.9512305,10.8002909 98.8578746,10.6781091 99.7987729,10.6781091 C100.467824,10.6781091 101.105536,10.7472 101.713366,10.8882909 C102.319739,11.0293818 102.886756,11.2272 103.415875,11.4824727 C103.942807,11.7384727 104.429654,12.0475636 104.879332,12.4068364 C105.331925,12.7653818 105.74079,13.1602909 106.106654,13.5879273 L106.325298,11.9122909 C106.378502,11.7261091 106.425146,11.5719273 106.473247,11.4512 C106.522078,11.3319273 106.577468,11.2352 106.647434,11.1624727 C106.713027,11.0897455 106.801214,11.0402909 106.906163,11.0133818 C107.008925,10.9886545 107.140112,10.9748364 107.296078,10.9748364 L108.865214,10.9748364 C109.034298,10.9748364 109.201197,10.9886545 109.367366,11.0213818 C109.534264,11.0519273 109.686586,11.1028364 109.822875,11.1712 C109.958434,11.2373818 110.064841,11.3319273 110.14501,11.4512 C110.222993,11.5719273 110.263078,11.7195636 110.263078,11.8992 L110.263078,29.9755636 Z" id="Fill-5"></path>
                <path d="M114.936085,20.9123636 C114.936085,21.7472727 115.084034,22.5385455 115.373373,23.2854545 C115.666356,24.0301818 116.074492,24.6847273 116.597051,25.2498182 C117.122525,25.812 117.736186,26.2592727 118.442407,26.5872727 C119.147898,26.916 119.918254,27.0818182 120.75639,27.0818182 C121.583593,27.0818182 122.35978,26.9181818 123.093695,26.5952727 C123.823966,26.2709091 124.461678,25.836 125.005373,25.2890909 C125.549797,24.7407273 125.980525,24.1014545 126.299746,23.3705455 C126.619695,22.6410909 126.789508,21.868 126.809186,21.0534545 L126.809186,20.8054545 C126.789508,19.9909091 126.619695,19.2178182 126.299746,18.4869091 C125.980525,17.7567273 125.549797,17.116 125.005373,16.5618182 C124.461678,16.0083636 123.823966,15.5712727 123.093695,15.2476364 C122.35978,14.9247273 121.583593,14.7632727 120.75639,14.7632727 C119.918254,14.7632727 119.147898,14.9254545 118.442407,15.2563636 C117.736186,15.5843636 117.122525,16.0309091 116.597051,16.5938182 C116.074492,17.1581818 115.666356,17.8127273 115.373373,18.5589091 C115.084034,19.3050909 114.936085,20.0898182 114.936085,20.9123636 M126.511831,29.4905455 C126.565763,29.3021818 126.591271,29.0818182 126.591271,28.8265455 C126.591271,28.5705455 126.600017,28.3334545 126.62261,28.1130909 C126.247271,28.5101818 125.845695,28.8803636 125.422983,29.2258182 C125.000271,29.5698182 124.541847,29.8694545 124.049169,30.1254545 C123.557949,30.3821818 123.027373,30.5807273 122.449424,30.7283636 C121.87439,30.8738182 121.251983,30.9465455 120.582932,30.9465455 C119.642034,30.9465455 118.739763,30.8316364 117.879763,30.6032727 C117.014661,30.3727273 116.212966,30.0447273 115.468119,29.6163636 C114.726915,29.188 114.052034,28.6723636 113.445661,28.0665455 C112.839288,27.4629091 112.319644,26.7887273 111.885271,26.0483636 C111.450169,25.3065455 111.115644,24.5043636 110.882424,23.6374545 C110.645559,22.7705455 110.528949,21.8621818 110.528949,20.9123636 C110.528949,19.9749091 110.645559,19.0672727 110.882424,18.1909091 C111.115644,17.3138182 111.450169,16.4978182 111.885271,15.7407273 C112.319644,14.9836364 112.839288,14.2927273 113.445661,13.6650909 C114.052034,13.0410909 114.726915,12.5050909 115.468119,12.0629091 C116.212966,11.6178182 117.014661,11.2738182 117.879763,11.0294545 C118.739763,10.7843636 119.642034,10.6614545 120.582932,10.6614545 C121.251983,10.6614545 121.882407,10.7312727 122.474932,10.8723636 C123.063814,11.0134545 123.616254,11.2149091 124.134441,11.4738182 C124.654085,11.7363636 125.136559,12.044 125.586237,12.3996364 C126.035915,12.7545455 126.449153,13.1392727 126.825949,13.5574545 C126.866034,13.2745455 126.907576,12.9981818 126.946203,12.7254545 C126.979729,12.4556364 127.013983,12.1792727 127.04678,11.8985455 C127.108,11.6054545 127.199102,11.3792727 127.320085,11.2170909 C127.438153,11.0556364 127.667729,10.9749091 128.003712,10.9749091 C128.346254,10.9749091 128.690983,10.9778182 129.029881,10.9821818 C129.370237,10.988 129.711322,10.988 130.057508,10.988 C130.299475,10.988 130.510102,11.0738182 130.692305,11.2403636 C130.874508,11.4083636 130.96561,11.6258182 130.96561,11.8985455 L130.96561,12.0229091 L130.96561,27.8636364 C130.96561,29.5741818 130.687932,31.0585455 130.136949,32.3167273 C129.580864,33.5741818 128.828729,34.6178182 127.876898,35.4469091 C126.925797,36.2767273 125.818729,36.8941818 124.560068,37.3014545 C123.29922,37.7087273 121.964034,37.9123636 120.551593,37.9123636 C119.953966,37.9123636 119.35561,37.8629091 118.756525,37.7632727 C118.154525,37.6650909 117.566373,37.524 116.991339,37.3407273 C116.416305,37.1589091 115.86678,36.9356364 115.343492,36.6672727 C114.820932,36.4010909 114.344288,36.1021818 113.917203,35.7683636 C113.778729,35.6847273 113.666492,35.5821818 113.579763,35.4636364 C113.490119,35.3436364 113.445661,35.1938182 113.445661,35.0170909 C113.445661,34.9312727 113.457322,34.8461818 113.477,34.7581818 C113.498136,34.6694545 113.552797,34.5683636 113.635153,34.4534545 L114.810729,32.7472727 C114.924424,32.612 115.031559,32.5072727 115.122661,32.4418182 C115.219593,32.3749091 115.323085,32.3392727 115.43678,32.3392727 C115.521322,32.3501818 115.618983,32.3712727 115.729034,32.4018182 C115.836898,32.4338182 115.949864,32.4963636 116.065017,32.5887273 C116.317186,32.8112727 116.626932,32.9952727 117.000085,33.1458182 C117.370322,33.2970909 117.755864,33.4221818 118.158898,33.5225455 C118.56339,33.62 118.964237,33.6927273 119.368729,33.732 C119.768847,33.7749091 120.128881,33.7945455 120.439356,33.7945455 C121.216271,33.7945455 121.956746,33.6963636 122.662966,33.4985455 C123.365542,33.2992727 123.995237,33.0127273 124.54622,32.6374545 C125.094288,32.2621818 125.541051,31.8069091 125.892339,31.2752727 C126.241441,30.7429091 126.449153,30.148 126.511831,29.4905455" id="Fill-7"></path>
                <path d="M149.866442,30.2895273 C149.866442,30.4037091 149.829273,30.4931636 149.749832,30.5557091 C149.67112,30.6182545 149.577832,30.6633455 149.460493,30.6888 C149.345341,30.7149818 149.218527,30.7288 149.083697,30.7346182 C148.948137,30.7404364 148.827154,30.7426182 148.723663,30.7426182 L147.139222,30.7426182 C146.836036,30.7426182 146.610832,30.6473455 146.464341,30.4560727 C146.316392,30.2604364 146.219459,30.0378909 146.166985,29.7898909 L145.995714,28.3651636 C145.765408,28.7077091 145.475341,29.0400727 145.132069,29.3586182 C144.787341,29.6764364 144.379205,29.9593455 143.90912,30.2037091 C143.438307,30.4488 142.896069,30.6451636 142.283866,30.7906182 C141.67312,30.9375273 140.980019,31.0095273 140.20529,31.0095273 C138.961205,31.0095273 137.863612,30.7891636 136.911781,30.3433455 C135.959222,29.9011636 135.160442,29.2960727 134.519815,28.5280727 C133.875544,27.7615273 133.388697,26.8560727 133.052714,25.8124364 C132.718188,24.7702545 132.55129,23.6466182 132.55129,22.4473455 L132.55129,12.0066182 C132.55129,11.6328 132.640934,11.3477091 132.817307,11.1542545 C132.994408,10.9615273 133.253137,10.8655273 133.586205,10.8655273 L135.969425,10.8655273 C136.387764,10.8655273 136.668358,10.9418909 136.811934,11.0989818 C136.951137,11.2560727 137.021103,11.5324364 137.021103,11.9280727 L137.021103,22.3695273 C137.021103,22.9222545 137.10929,23.4626182 137.279103,23.9891636 C137.452561,24.5171636 137.71129,24.9884364 138.057476,25.4051636 C138.402934,25.8218909 138.834392,26.1564364 139.349663,26.4066182 C139.869307,26.6582545 140.471307,26.7840727 141.16368,26.7840727 C141.644697,26.7840727 142.145392,26.6989818 142.666493,26.5324364 C143.191968,26.3666182 143.667154,26.1113455 144.095697,25.7658909 C144.525697,25.4211636 144.881358,24.9906182 145.163408,24.4757091 C145.444002,23.9578909 145.58612,23.3549818 145.58612,22.6677091 L145.58612,12.5091636 C145.58612,12.3193455 145.596324,12.1302545 145.617459,11.9375273 C145.637137,11.7433455 145.683053,11.5658909 145.750103,11.4044364 C145.819341,11.2444364 145.9119,11.1128 146.032883,11.0131636 C146.152408,10.9149818 146.316392,10.8655273 146.527019,10.8655273 L149.116493,10.8655273 C149.460493,10.8655273 149.71412,10.9484364 149.876646,11.1149818 C150.036985,11.2829818 150.118612,11.5164364 150.118612,11.8197091 L150.118612,29.8197091 C150.118612,30.0277091 150.035527,30.1855273 149.866442,30.2895273" id="Fill-9"></path>
                <path d="M167.515975,20.9457455 C167.515975,20.1224727 167.36511,19.3362909 167.067754,18.5879273 C166.770398,17.8439273 166.361534,17.1915636 165.84189,16.6330182 C165.328076,16.0752 164.712958,15.6308364 164.003093,15.3021091 C163.291042,14.9733818 162.519958,14.8090182 161.695669,14.8090182 C160.869924,14.8090182 160.09228,14.9712 159.366381,15.2933818 C158.63611,15.6177455 158.001314,16.0541091 157.453246,16.6002909 C156.90372,17.1493818 156.464246,17.7901091 156.135551,18.5195636 C155.805398,19.2490182 155.634127,20.0213818 155.624653,20.8366545 L155.624653,20.9457455 C155.624653,21.7792 155.784992,22.5719273 156.104212,23.3239273 C156.422703,24.0744727 156.857076,24.7319273 157.405144,25.2962909 C157.956127,25.8599273 158.596754,26.3086545 159.3365,26.6410182 C160.072602,26.9762909 160.85972,27.1428364 161.695669,27.1428364 C162.519958,27.1428364 163.291042,26.9762909 164.003093,26.6410182 C164.712958,26.3086545 165.328076,25.8599273 165.84189,25.2962909 C166.361534,24.7319273 166.770398,24.0744727 167.067754,23.3239273 C167.36511,22.5719273 167.515975,21.7792 167.515975,20.9457455 M151.970381,11.1144727 C152.105212,11.0519273 152.243686,11.0133818 152.384347,10.9973818 C152.527195,10.9821091 152.666398,10.9748364 152.801958,10.9748364 L154.384212,10.9748364 C154.699059,10.9748364 154.922805,11.0628364 155.051805,11.2402909 C155.182992,11.4177455 155.274093,11.6417455 155.326568,11.9122909 L155.655992,13.8235636 C156.022585,13.4061091 156.411771,13.0090182 156.82428,12.6344727 C157.238246,12.2584727 157.695212,11.9239273 158.196636,11.6322909 C158.698788,11.3392 159.252686,11.1064727 159.859059,10.9348364 C160.468347,10.7632 161.144686,10.6781091 161.899008,10.6781091 C162.851568,10.6781091 163.756754,10.8002909 164.618941,11.0446545 C165.484771,11.2897455 166.288653,11.6344727 167.036415,12.0788364 C167.783449,12.5224727 168.461246,13.0541091 169.067619,13.6759273 C169.673992,14.2948364 170.195093,14.9872 170.628737,15.7486545 C171.060195,16.5093818 171.396178,17.3290182 171.633771,18.2061091 C171.86772,19.0824727 171.985788,19.9973818 171.985788,20.9457455 C171.985788,21.8955636 171.86772,22.8082909 171.633771,23.6832 C171.396178,24.5610182 171.060195,25.3806545 170.628737,26.1413818 C170.195093,26.9028364 169.673992,27.5973818 169.067619,28.2235636 C168.461246,28.8490182 167.783449,29.3842909 167.036415,29.8279273 C166.288653,30.2708364 165.480398,30.6162909 164.613839,30.8613818 C163.745093,31.1064727 162.841364,31.2293818 161.899008,31.2293818 C161.219754,31.2293818 160.595161,31.1566545 160.025958,31.0097455 C159.454568,30.8635636 158.928364,30.6628364 158.441517,30.4061091 C157.956127,30.1522909 157.503534,29.8541091 157.090297,29.5152 C156.676331,29.1748364 156.289331,28.8126545 155.922008,28.4272 L155.922008,36.0504727 C155.922008,36.3013818 155.844754,36.5130182 155.687331,36.6897455 C155.530636,36.8693818 155.295229,36.9588364 154.98111,36.9588364 L152.378517,36.9588364 C152.158415,36.9588364 151.941958,36.8773818 151.726958,36.7152 C151.511958,36.5530182 151.404093,36.3326545 151.404093,36.0504727 L151.404093,11.8992 C151.404093,11.6781091 151.453653,11.5064727 151.556415,11.3813818 C151.651161,11.2562909 151.794008,11.1682909 151.970381,11.1144727" id="Fill-11"></path>
                <path d="M29.6634407,31.4436364 L25.4057119,28.2669091 C25.8043729,26.6916364 26.3269322,24.1018182 26.7051864,21.3214545 L29.6634407,23.1985455 L29.6634407,31.4436364 Z M17.3829322,28.1876364 C16.6759831,25.3941818 15.585678,19.424 15.585678,14.8763636 C15.585678,9.73672727 17.1081695,5.27054545 19.7632373,2.62327273 C20.1516949,2.23418182 20.5605593,1.88872727 20.9861864,1.59636364 C24.3168644,3.90763636 26.3837797,8.984 26.3837797,14.8763636 C26.3837797,19.4218182 25.2934746,25.3941818 24.5857966,28.1876364 L17.3829322,28.1876364 Z M12.3074746,31.4421818 L12.3074746,23.1985455 L15.2606271,21.3214545 C15.6439831,24.1032727 16.1650847,26.6923636 16.5644746,28.2669091 L12.3074746,31.4421818 Z M20.7536949,0 C9.29237288,0 0,9.27345455 0,20.7105455 C0,28.9658182 4.83786441,36.0894545 11.8432203,39.4189091 C18.3158136,36.992 19.4768136,30.3469091 19.4768136,30.3469091 L20.2005254,29.7323636 L20.2005254,29.0509091 L20.9628644,29.392 L21.6705424,29.0509091 L21.6705424,29.7323636 L22.3935254,30.3469091 C22.3935254,30.3469091 23.5625424,36.8349091 29.8500169,39.3301818 C36.7540678,35.9650909 41.5095763,28.8945455 41.5095763,20.7105455 C41.5095763,9.27345455 32.218661,0 20.7536949,0 Z" id="Fill-14"></path>
            </g>
        </g>
    </g>
</svg>